<svg width="251" height="251" viewBox="0 0 251 251" fill="none" xmlns="http://www.w3.org/2000/svg">
<g filter="url(#filter0_d_104_79)">
<g clip-path="url(#clip0_104_79)">
<path d="M148.494 67.5258C150.141 68.0623 151.73 68.6736 153.307 69.3987C153.518 69.4958 153.73 69.5929 153.947 69.693C156.94 71.0942 159.734 72.7843 162.372 74.8076C162.643 75.0144 162.913 75.2213 163.192 75.4344C173.87 83.7012 173.87 83.7012 175.162 87.6907C175.342 87.6907 175.521 87.6907 175.706 87.6907C176.186 88.3756 176.63 89.0602 177.067 89.7737C177.199 89.9869 177.331 90.2001 177.467 90.4198C178.391 91.9245 179.295 93.4423 180.179 94.9725C180.288 95.1597 180.397 95.3468 180.509 95.5397C181.173 96.7047 181.735 97.8886 182.255 99.1284C182.482 99.668 182.722 100.201 182.965 100.734C186.484 108.6 187.802 116.828 187.764 125.43C187.764 125.796 187.764 125.796 187.763 126.169C187.732 134.23 186.447 141.876 183.326 149.306C183.23 149.537 183.135 149.768 183.037 150.006C181.795 153.013 180.462 155.824 178.699 158.548C178.445 158.959 178.445 158.959 178.185 159.378C176.277 162.415 174.11 165.225 171.743 167.895C171.604 168.054 171.464 168.212 171.321 168.376C170.98 168.752 170.623 169.113 170.264 169.471C170.084 169.471 169.905 169.471 169.72 169.471C169.615 169.719 169.615 169.719 169.509 169.973C169.142 170.652 168.772 171.024 168.196 171.523C168.002 171.693 167.807 171.862 167.606 172.037C161.29 177.385 154.957 181.347 147.202 184.104C146.855 184.231 146.508 184.357 146.161 184.483C145.827 184.602 145.492 184.721 145.148 184.844C144.7 185.004 144.7 185.004 144.244 185.168C143.324 185.435 143.324 185.435 141.147 185.715C141.147 188.58 141.147 191.445 141.147 194.397C149.941 192.359 158.131 190.13 165.366 184.314C165.656 184.087 165.946 183.859 166.237 183.632C168.055 182.207 169.847 180.751 171.624 179.273C173.408 180.782 175.018 182.454 176.642 184.139C176.921 184.429 177.201 184.718 177.481 185.007C178.16 185.709 178.838 186.412 179.516 187.115C178.64 188.024 177.763 188.883 176.795 189.688C176.458 189.971 176.458 189.971 176.114 190.26C175.449 190.745 174.84 191.041 174.073 191.316C174.073 191.501 174.073 191.686 174.073 191.876C173.396 192.375 172.72 192.839 172.016 193.294C171.804 193.432 171.593 193.57 171.375 193.712C170.94 193.995 170.504 194.277 170.067 194.558C169.527 194.906 168.989 195.259 168.451 195.612C160.908 200.499 152.462 203.652 143.763 205.452C143.14 205.581 142.519 205.716 141.897 205.853C139.852 206.284 137.816 206.565 135.739 206.772C135.397 206.808 135.397 206.808 135.049 206.844C132.619 207.063 130.282 207 127.813 207C127.813 196.926 127.813 186.852 127.813 176.473C130.238 176.334 130.238 176.334 132.711 176.192C133.824 176.051 134.91 175.901 136.011 175.702C136.288 175.653 136.565 175.604 136.851 175.553C139.18 175.119 141.377 174.521 143.596 173.672C143.803 173.594 144.011 173.516 144.224 173.436C148.85 171.678 153.322 169.561 157.202 166.39C157.403 166.236 157.604 166.082 157.811 165.924C159.624 164.526 161.269 162.944 162.917 161.349C163.096 161.179 163.276 161.009 163.462 160.834C164.933 159.397 166.09 157.717 167.27 156.027C167.473 155.741 167.676 155.454 167.885 155.159C169.492 152.836 170.875 150.425 172.169 147.906C172.421 147.419 172.421 147.419 172.679 146.923C178.315 135.347 178.442 121.117 174.618 108.976C172.339 102.132 168.67 96.1545 164.005 90.7715C163.874 90.618 163.743 90.4646 163.609 90.3065C159.554 85.5611 154.96 82.2859 149.38 79.7077C148.494 79.2887 148.494 79.2887 148.222 79.0086C148.194 78.189 148.184 77.3776 148.188 76.558C148.189 76.3113 148.189 76.0646 148.19 75.8105C148.207 73.045 148.343 70.2864 148.494 67.5258Z" fill="#1C82AD"/>
<path d="M102.778 67.5258C102.955 71.3556 103.096 75.1742 103.05 79.0086C102.78 79.1443 102.51 79.2801 102.232 79.4199C101.048 80.0188 99.8704 80.6306 98.6961 81.2491C98.5278 81.3374 98.3595 81.4256 98.1862 81.5165C87.8804 86.9982 79.9225 98.4446 76.4383 109.672C74.865 114.987 74.1359 120.039 74.1203 125.588C74.1192 125.788 74.1182 125.988 74.1172 126.195C74.1072 130.028 74.4935 133.726 75.3958 137.455C75.4559 137.707 75.5159 137.959 75.5777 138.218C77.4386 145.883 81.2164 153.281 86.4603 159.077C86.907 159.571 87.3298 160.072 87.7433 160.596C94.7127 169.164 105.821 174.29 116.384 175.912C118.719 176.097 121.054 176.282 123.459 176.473C123.459 186.547 123.459 196.621 123.459 207C120.729 207 118.102 206.954 115.397 206.685C115.219 206.667 115.041 206.65 114.857 206.631C109.295 206.068 103.714 204.959 98.424 203.079C98.2142 203.005 98.0045 202.931 97.7883 202.854C92.537 200.965 87.3581 198.564 82.641 195.517C82.2993 195.306 81.9574 195.095 81.6153 194.885C79.2446 193.412 77.0523 191.8 74.91 189.997C74.4898 189.646 74.0628 189.304 73.6355 188.963C73.3858 188.763 73.136 188.564 72.8787 188.358C72.6605 188.184 72.4423 188.011 72.2175 187.832C72.0653 187.688 71.9131 187.544 71.7562 187.395C71.7562 187.21 71.7562 187.025 71.7562 186.835C72.1251 186.462 72.1251 186.462 72.6236 186.047C73.7499 185.084 74.7593 184.087 75.685 182.914C76.2033 182.29 76.6413 181.827 77.2496 181.321C78.0497 180.708 78.0497 180.708 78.5592 179.833C78.7388 179.833 78.9184 179.833 79.1035 179.833C79.1035 179.648 79.1035 179.464 79.1035 179.273C80.1286 179.638 80.787 180.063 81.5696 180.831C83.0245 182.204 84.5838 183.4 86.1786 184.594C86.3964 184.762 86.6143 184.929 86.8387 185.101C93.8273 190.335 101.759 192.675 110.125 194.397C110.125 191.532 110.125 188.667 110.125 185.715C109.137 185.53 108.15 185.345 107.132 185.155C106.505 184.975 105.882 184.781 105.266 184.566C104.942 184.453 104.618 184.34 104.284 184.223C103.782 184.043 103.782 184.043 103.271 183.859C103.098 183.797 102.924 183.735 102.746 183.672C100.007 182.689 97.4113 181.583 94.8864 180.113C94.5928 179.947 94.2992 179.78 93.9967 179.608C90.1255 177.353 86.5276 174.557 83.2597 171.455C82.6849 170.913 82.0968 170.392 81.5015 169.873C80.605 169.069 79.8269 168.206 79.0599 167.272C78.5137 166.615 77.9417 165.989 77.3687 165.357C75.9709 163.758 74.801 162.025 73.6611 160.229C73.4941 159.967 73.4941 159.967 73.3238 159.701C69.8707 154.266 67.0467 148.337 65.4975 142.024C65.4059 141.694 65.3143 141.363 65.22 141.023C63.8371 135.836 63.5168 130.627 63.5076 125.272C63.5066 125.045 63.5056 124.818 63.5046 124.585C63.4945 120.217 63.7007 115.812 64.7661 111.567C64.8548 111.2 64.8548 111.2 64.9453 110.826C67.097 102.132 70.9531 94.1156 76.3044 87.0525C76.6464 86.5814 76.9546 86.0988 77.2603 85.6022C77.4195 85.3672 77.5788 85.1322 77.7429 84.89C77.9225 84.89 78.1021 84.89 78.2871 84.89C78.361 84.7229 78.435 84.5557 78.5111 84.3834C78.8253 83.7814 79.1322 83.3915 79.6009 82.9131C79.7514 82.7588 79.9019 82.6045 80.0569 82.4454C80.2921 82.2085 80.2921 82.2085 80.5321 81.9668C80.6847 81.8099 80.8373 81.6531 80.9945 81.4915C81.9566 80.5115 82.957 79.6138 84.0016 78.7285C84.1331 78.592 84.2646 78.4554 84.4001 78.3147C86.7668 75.8998 89.8436 73.9952 92.7095 72.2869C92.8763 72.1856 93.0432 72.0842 93.215 71.9798C100.555 67.5258 100.555 67.5258 102.778 67.5258Z" fill="#1C82AD"/>
<path d="M123.459 44C123.459 60.5437 123.459 77.0873 123.459 94.1323C121.214 94.4096 118.969 94.6868 116.656 94.9725C113.515 95.7985 110.77 97.0122 107.948 98.6134C107.686 98.7593 107.423 98.9051 107.153 99.0554C105.298 100.174 103.803 101.618 102.292 103.176C101.617 103.857 101.052 104.41 100.19 104.82C99.1709 104.752 98.4555 104.234 97.6246 103.672C97.2649 103.439 96.9049 103.206 96.5447 102.974C96.3616 102.855 96.1784 102.735 95.9898 102.612C95.0977 102.041 94.1852 101.508 93.2707 100.976C93.0221 100.831 93.0221 100.831 92.7685 100.683C92.3863 100.459 92.0037 100.236 91.621 100.014C94.4785 93.573 101.743 89.0644 107.901 86.5595C108.765 86.2904 108.765 86.2904 110.125 86.2904C110.125 76.4936 110.125 66.6968 110.125 56.6031C104.146 58.1399 104.146 58.1399 98.424 60.244C98.256 60.3145 98.0879 60.3851 97.9148 60.4577C92.1197 62.8926 86.704 66.0042 81.8247 70.0464C81.5125 70.2988 81.1999 70.5508 80.8871 70.8024C80.7193 70.9374 80.5515 71.0725 80.3786 71.2116C80.2103 71.347 80.0421 71.4823 79.8688 71.6218C77.5606 73.403 77.5606 73.403 75.5489 75.5077C74.8688 76.3502 74.142 77.1133 73.3889 77.8883C71.306 80.1559 69.3578 82.5712 67.6744 85.1701C66.5989 85.0044 65.8189 84.6626 64.8788 84.1056C64.6094 83.9473 64.34 83.789 64.0624 83.6259C63.7839 83.4596 63.5054 83.2934 63.2184 83.1221C62.942 82.9591 62.6656 82.7961 62.3808 82.6282C61.6046 82.1701 60.8298 81.7098 60.055 81.2491C59.4205 80.8749 58.7854 80.5018 58.1502 80.1289C58.2444 78.5875 59.1622 77.5986 60.055 76.4355C60.215 76.2237 60.375 76.012 60.5399 75.7939C61.6038 74.3984 62.7028 73.0557 63.8764 71.7563C64.3594 71.2216 64.8187 70.674 65.2764 70.1164C67.658 67.3126 70.2742 64.7845 73.1168 62.4845C73.6218 62.0533 74.1264 61.6216 74.6305 61.1892C84.8812 52.5763 97.9016 46.8828 110.942 44.8402C111.2 44.7987 111.458 44.7573 111.724 44.7145C112.545 44.586 113.367 44.4663 114.19 44.3501C114.429 44.3142 114.669 44.2784 114.915 44.2414C117.794 43.8665 120.492 44 123.459 44Z" fill="#1C82AD"/>
<path d="M127.813 44C134.745 44 134.745 44 137.575 44.4726C137.893 44.5228 138.211 44.5731 138.539 44.6248C151.034 46.6562 163.303 50.9904 173.529 58.8436C173.787 59.0382 174.045 59.2328 174.31 59.4333C176.184 60.8602 177.996 62.352 179.788 63.8849C179.954 64.0235 180.119 64.1621 180.29 64.305C181.175 65.049 181.984 65.8435 182.781 66.6856C183.011 66.9166 183.241 67.1477 183.479 67.3857C184.142 68.0859 184.142 68.0859 184.669 68.7861C185.214 69.5158 185.214 69.5158 185.962 70.0814C187.282 71.1777 188.271 72.6011 189.312 73.9674C189.43 74.1225 189.549 74.2776 189.671 74.4374C192.408 78.0368 192.408 78.0368 193.122 79.2887C192.725 80.5136 191.8 80.839 190.758 81.4417C190.551 81.5635 190.344 81.6852 190.13 81.8107C189.704 82.0616 189.277 82.3117 188.849 82.5609C188.263 82.9062 187.685 83.2609 187.108 83.621C186.851 83.7787 186.851 83.7787 186.59 83.9397C186.123 84.2271 185.657 84.5164 185.191 84.8058C184.414 85.1701 184.414 85.1701 183.823 85.169C183.12 84.7745 182.832 84.2814 182.39 83.5947C179.076 78.7258 174.868 74.1904 170.264 70.6065C170.114 70.4887 169.965 70.371 169.811 70.2496C165.312 66.7164 160.547 63.8253 155.409 61.3953C155.008 61.2049 154.607 61.0129 154.207 60.8179C150.013 58.7837 145.675 57.874 141.147 56.6031C141.237 66.3075 141.326 76.0119 141.419 86.0103C142.317 86.2876 143.215 86.5648 144.14 86.8505C145.445 87.4379 146.696 88.1192 147.95 88.811C148.186 88.9406 148.421 89.0702 148.664 89.2037C151.925 91.108 154.71 93.6711 157.219 96.5129C157.447 96.7699 157.674 97.027 157.909 97.2918C159.651 99.3211 159.651 99.3211 159.651 100.014C159.402 100.159 159.154 100.305 158.897 100.455C158.004 100.979 157.117 101.514 156.229 102.05C155.675 102.381 155.12 102.711 154.566 103.042C154.285 103.213 154.004 103.384 153.715 103.56C153.445 103.72 153.174 103.88 152.896 104.045C152.529 104.266 152.529 104.266 152.155 104.49C151.487 104.775 151.487 104.775 150.884 104.707C150.249 104.429 149.926 104.058 149.464 103.532C143.53 97.2105 136.095 95.0794 127.813 94.1323C127.813 77.5886 127.813 61.045 127.813 44Z" fill="#1C82AD"/>
<path d="M51.8915 90.2113C53.2688 90.3636 54.2712 91.0435 55.4291 91.7692C55.6311 91.8937 55.8331 92.0182 56.0413 92.1465C56.6551 92.5259 57.2669 92.9084 57.8781 93.2921C58.0631 93.408 58.248 93.524 58.4385 93.6434C59.4337 94.2686 60.4259 94.8984 61.4157 95.5327C61.2554 96.4562 61.0377 97.2894 60.6982 98.1594C60.6092 98.3914 60.5202 98.6234 60.4285 98.8624C60.3333 99.1095 60.2382 99.3566 60.1401 99.6112C54.927 113.463 53.6452 129.028 57.606 143.424C57.7044 143.806 57.8025 144.187 57.9005 144.569C60.4155 154.095 65.1071 163.007 71.212 170.591C70.7708 171.74 69.9666 172.504 69.1265 173.352C68.9763 173.506 68.826 173.66 68.6713 173.819C68.1929 174.308 67.7126 174.795 67.2323 175.282C66.9069 175.614 66.5816 175.947 66.2565 176.279C65.4607 177.092 64.6632 177.903 63.8648 178.713C62.7796 178.208 62.2125 177.513 61.5178 176.543C61.3995 176.38 61.2812 176.218 61.1594 176.05C60.9115 175.708 60.6648 175.365 60.4192 175.021C60.0781 174.544 59.7331 174.07 59.3876 173.596C56.6664 169.817 54.3416 165.748 52.3624 161.511C52.0733 160.896 51.7755 160.285 51.4631 159.682C50.1194 157.083 49.245 154.335 48.3539 151.546C48.2735 151.301 48.1931 151.056 48.1103 150.804C44.166 138.718 43.0671 125.487 45.0885 112.897C45.1264 112.649 45.1643 112.402 45.2033 112.146C46.3763 104.612 48.5818 97.05 51.8915 90.2113Z" fill="#1C82AD"/>
<path d="M199.381 90.2113C208.316 110.478 209.668 133.103 202.127 154.105C198.785 163.118 194 171.347 187.952 178.713C186.836 178.259 186.093 177.431 185.269 176.567C185.119 176.412 184.97 176.257 184.816 176.098C184.34 175.606 183.867 175.111 183.394 174.617C183.071 174.282 182.748 173.947 182.425 173.613C181.635 172.794 180.847 171.973 180.06 171.151C180.45 170.096 180.863 169.354 181.574 168.491C192.496 154.737 197.313 136.213 195.696 118.638C195.526 117.088 195.291 115.553 195.027 114.017C194.987 113.778 194.948 113.539 194.907 113.293C193.987 107.785 192.56 101.956 190.009 96.9855C189.584 96.0928 189.584 96.0928 189.856 95.2526C190.54 94.7849 190.54 94.7849 191.442 94.2811C191.602 94.191 191.761 94.101 191.926 94.0082C192.436 93.7203 192.949 93.4361 193.462 93.1521C193.971 92.8672 194.479 92.5816 194.987 92.296C195.45 92.0359 195.915 91.7775 196.379 91.5192C196.909 91.2189 197.43 90.9037 197.941 90.5707C198.564 90.2113 198.564 90.2113 199.381 90.2113Z" fill="#1C82AD"/>
<path d="M165.638 110.096C166.219 111.765 166.759 113.444 167.27 115.137C167.331 115.333 167.392 115.53 167.455 115.732C168.426 119.003 168.466 122.301 168.478 125.693C168.48 125.912 168.481 126.132 168.483 126.358C168.504 130.522 168.013 134.412 166.573 138.331C166.479 138.59 166.385 138.848 166.289 139.115C164.152 144.83 161.012 149.899 156.93 154.347C156.628 154.714 156.328 155.081 156.028 155.45C154.945 156.736 153.715 157.855 152.487 158.991C151.782 159.618 151.782 159.618 151.322 160.197C150.943 160.509 150.943 160.509 150.443 160.509C149.601 160.108 148.999 159.485 148.341 158.828C147.311 157.826 146.273 156.865 145.161 155.957C143.6 154.669 142.157 153.262 140.71 151.841C140.531 151.666 140.353 151.491 140.169 151.311C140.01 151.154 139.851 150.997 139.687 150.835C139.203 150.371 139.203 150.371 138.426 149.866C138.745 148.879 138.998 148.739 139.803 148.151C142.589 145.979 144.592 143.039 146.045 139.783C147.451 140.25 148.402 141.163 149.481 142.152C150.213 142.805 150.777 143.306 151.76 143.424C152.418 142.601 153.044 141.757 153.664 140.904C153.861 140.638 154.057 140.373 154.26 140.1C157.996 134.645 159.369 127.528 158.418 120.953C158.087 119.259 157.626 117.724 156.841 116.193C156.658 115.698 156.658 115.698 156.93 114.857C157.547 114.422 158.153 114.031 158.801 113.65C158.984 113.539 159.168 113.428 159.357 113.314C160.889 112.396 162.435 111.504 164.005 110.656C164.2 110.549 164.396 110.442 164.597 110.331C165.093 110.096 165.093 110.096 165.638 110.096Z" fill="#1C82AD"/>
<path d="M85.6344 110.096C87.0589 110.408 88.017 110.94 89.2028 111.796C90.261 112.524 91.3555 113.182 92.4544 113.842C92.6654 113.969 92.8763 114.096 93.0937 114.227C93.6003 114.531 94.1073 114.834 94.6144 115.137C94.3207 116.06 94.0175 116.969 93.662 117.868C91.9406 122.618 92.2187 128.322 93.798 133.062C93.9134 133.411 94.0288 133.761 94.1477 134.121C95.3388 137.514 97.0882 140.801 99.5126 143.424C100.376 143.028 100.996 142.542 101.69 141.884C102.383 141.226 103.003 140.74 103.866 140.344C104.009 140.625 104.151 140.906 104.297 141.196C106.126 144.729 108.185 147.903 111.486 150.146C111.122 150.989 110.73 151.542 110.072 152.165C109.815 152.409 109.815 152.409 109.553 152.659C109.281 152.914 109.281 152.914 109.003 153.174C108.817 153.351 108.63 153.527 108.438 153.709C107.392 154.698 106.336 155.673 105.259 156.626C103.862 157.891 102.509 159.206 101.145 160.509C100.322 160.124 99.7061 159.678 99.0363 159.056C98.1865 158.27 98.1865 158.27 97.3218 157.502C96.2065 156.53 95.221 155.516 94.2785 154.367C93.9613 153.984 93.6353 153.609 93.3006 153.242C89.1813 148.71 86.04 142.906 84.2738 136.983C84.2082 136.769 84.1425 136.554 84.0749 136.334C82.666 131.556 82.7116 126.796 82.9132 121.859C82.9274 121.498 82.9274 121.498 82.9419 121.13C83.124 117.566 84.0818 113.292 85.6344 110.096Z" fill="#1C82AD"/>
<path d="M130.849 116.549C131.097 116.682 131.097 116.682 131.351 116.818C131.352 117.014 131.353 117.21 131.354 117.413C131.363 118.306 131.382 119.198 131.402 120.091C131.403 120.4 131.405 120.709 131.406 121.027C131.431 122.848 131.431 122.848 132.265 124.402C132.502 124.579 132.739 124.757 132.983 124.94C134.529 126.47 135.205 128.118 135.705 130.261C135.705 130.631 135.705 131.001 135.705 131.381C135.895 131.445 136.085 131.509 136.281 131.574C137.23 132.019 137.953 132.642 138.732 133.342C139.517 134.037 140.284 134.71 141.147 135.302C140.607 139.191 138.497 142.427 135.739 145.07C134.888 145.665 134.888 145.665 134.396 145.657C133.488 145.242 132.828 144.558 132.116 143.862C131.967 143.721 131.819 143.58 131.666 143.435C130.574 142.387 130.574 142.387 130.262 141.744C130.043 141.805 130.043 141.805 129.82 141.867C128.326 142.231 126.88 142.358 125.347 142.357C125.158 142.357 124.97 142.357 124.775 142.357C123.756 142.345 122.807 142.249 121.809 142.042C120.768 141.913 120.768 141.913 120.187 142.442C119.663 142.975 119.663 142.975 119.217 143.546C119.09 143.691 118.964 143.835 118.833 143.985C118.653 143.985 118.474 143.985 118.289 143.985C118.199 144.262 118.109 144.539 118.017 144.825C117.523 145.315 117.523 145.315 116.928 145.665C115.317 145.496 114.16 144.017 113.119 142.864C111.595 140.701 109.82 138.095 110.125 135.302C110.634 134.717 110.634 134.717 111.333 134.2C111.58 134.008 111.827 133.817 112.081 133.62C112.563 133.269 113.05 132.925 113.544 132.591C115.091 131.496 115.536 130.699 115.915 128.817C116.269 127.384 117.002 125.746 118.216 124.886C119.082 124.268 119.575 123.857 119.829 122.776C119.898 121.87 119.913 120.982 119.905 120.074C119.909 119.761 119.913 119.448 119.918 119.125C119.927 118.356 119.928 117.587 119.922 116.818C123.349 115.642 127.402 114.84 130.849 116.549Z" fill="#1C82AD"/>
</g>
</g>
<defs>
<filter id="filter0_d_104_79" x="0" y="0" width="251" height="251" filterUnits="userSpaceOnUse" color-interpolation-filters="sRGB">
<feFlood flood-opacity="0" result="BackgroundImageFix"/>
<feColorMatrix in="SourceAlpha" type="matrix" values="0 0 0 0 0 0 0 0 0 0 0 0 0 0 0 0 0 0 127 0" result="hardAlpha"/>
<feOffset/>
<feGaussianBlur stdDeviation="22"/>
<feComposite in2="hardAlpha" operator="out"/>
<feColorMatrix type="matrix" values="0 0 0 0 0 0 0 0 0 0 0 0 0 0 0 0 0 0 0.25 0"/>
<feBlend mode="normal" in2="BackgroundImageFix" result="effect1_dropShadow_104_79"/>
<feBlend mode="normal" in="SourceGraphic" in2="effect1_dropShadow_104_79" result="shape"/>
</filter>
<clipPath id="clip0_104_79">
<rect x="44" y="44" width="163" height="163" rx="11" fill="white"/>
</clipPath>
</defs>
</svg>
